
        <svg xmlns="http://www.w3.org/2000/svg" xmlns:xlink="http://www.w3.org/1999/xlink" version="1.1" width="3181.8181818181824" 
        height="839.7988208659996" viewBox="0 0 3181.8181818181824 839.7988208659996">
			
			<g transform="scale(9.090909090909092) translate(10, 10)">
				<defs id="SvgjsDefs3104"><linearGradient id="SvgjsLinearGradient3109"><stop id="SvgjsStop3110" stop-color="#147d6c" offset="0"></stop><stop id="SvgjsStop3111" stop-color="#1effff" offset="1"></stop></linearGradient><linearGradient id="SvgjsLinearGradient3112"><stop id="SvgjsStop3113" stop-color="#00ff8f" offset="0"></stop><stop id="SvgjsStop3114" stop-color="#00a1ff" offset="1"></stop></linearGradient></defs><g id="SvgjsG3105" featureKey="symbolFeature-0" transform="matrix(0.8330786439155016,0,0,0.8330786439155016,-6.237528730873097,-5.053455041279661)" fill="url(#SvgjsLinearGradient3109)"><rect xmlns="http://www.w3.org/2000/svg" x="34.571" y="16.321" fill="url(#SvgjsLinearGradient3109)" width="5.716" height="5.716"></rect><rect xmlns="http://www.w3.org/2000/svg" x="34.571" y="28.368" fill="url(#SvgjsLinearGradient3109)" width="5.716" height="5.716"></rect><rect xmlns="http://www.w3.org/2000/svg" x="34.571" y="40.416" fill="url(#SvgjsLinearGradient3109)" width="5.716" height="5.716"></rect><rect xmlns="http://www.w3.org/2000/svg" x="34.571" y="52.464" fill="url(#SvgjsLinearGradient3109)" width="5.716" height="5.716"></rect><rect xmlns="http://www.w3.org/2000/svg" x="80.349" y="16.321" fill="url(#SvgjsLinearGradient3109)" width="5.716" height="5.716"></rect><rect xmlns="http://www.w3.org/2000/svg" x="80.349" y="28.368" fill="url(#SvgjsLinearGradient3109)" width="5.716" height="5.716"></rect><rect xmlns="http://www.w3.org/2000/svg" x="80.349" y="40.416" fill="url(#SvgjsLinearGradient3109)" width="5.716" height="5.716"></rect><rect xmlns="http://www.w3.org/2000/svg" x="80.349" y="52.464" fill="url(#SvgjsLinearGradient3109)" width="5.716" height="5.716"></rect><path xmlns="http://www.w3.org/2000/svg" fill="url(#SvgjsLinearGradient3109)" d="M52.324,50.356c-0.188,0-0.375-0.048-0.546-0.142c-0.354-0.199-0.572-0.572-0.572-0.975V26.271  c0-0.404,0.218-0.777,0.572-0.975c0.354-0.194,0.786-0.19,1.13,0.024l18.704,11.483c0.332,0.203,0.532,0.563,0.532,0.951  c0,0.389-0.201,0.749-0.532,0.951L52.909,50.19C52.73,50.301,52.527,50.356,52.324,50.356z M53.442,28.268v18.974l15.45-9.488  L53.442,28.268z"></path><path xmlns="http://www.w3.org/2000/svg" fill="url(#SvgjsLinearGradient3109)" d="M81.978,8.301c4.025,0,7.3,3.275,7.3,7.3V59.3c0,4.025-3.275,7.3-7.3,7.3H38.279c-4.025,0-7.3-3.275-7.3-7.3  V15.601c0-4.025,3.275-7.3,7.3-7.3H81.978 M81.978,6.066H38.279c-5.266,0-9.535,4.269-9.535,9.535V59.3  c0,5.266,4.269,9.535,9.535,9.535h43.699c5.266,0,9.535-4.269,9.535-9.535V15.601C91.512,10.335,87.243,6.066,81.978,6.066  L81.978,6.066z"></path><path xmlns="http://www.w3.org/2000/svg" fill="url(#SvgjsLinearGradient3109)" d="M74.63,71.069h-2.299l0.225,0.924c0.478,1.957,0.164,3.985-0.884,5.706  c-1.048,1.722-2.704,2.931-4.661,3.409l-38.573,9.386c-1.953,0.474-3.98,0.164-5.706-0.886c-1.722-1.047-2.931-2.704-3.409-4.661  l-9.383-38.57c-0.478-1.957-0.161-3.985,0.886-5.706c1.047-1.722,2.704-2.931,4.661-3.409l11.023-2.682V32.28l-11.551,2.809  c-2.538,0.618-4.683,2.187-6.043,4.419c-1.357,2.23-1.765,4.858-1.148,7.396l9.386,38.57c0.615,2.538,2.184,4.683,4.417,6.043  c1.552,0.943,3.293,1.429,5.065,1.429c0.775,0,1.558-0.094,2.331-0.284l38.573-9.386c2.538-0.615,4.683-2.184,6.04-4.417  c1.36-2.23,1.765-4.858,1.148-7.396L74.63,71.069z"></path></g><g id="SvgjsG3106" featureKey="nameFeature-0" transform="matrix(1.2476602364699063,0,0,1.2476602364699063,88.25327911954055,7.320026662417009)" fill="url(#SvgjsLinearGradient3112)"><path d="M33.92 16.28 c-1.6267 -1.8933 -3.7467 -3.3733 -6.36 -4.44 s-5.4 -1.6 -8.36 -1.6 c-4.88 0 -9.04 1.3067 -12.48 3.92 c-3.5467 2.6933 -5.32 5.9732 -5.32 9.84 s1.7733 7.1468 5.32 9.84 c3.44 2.6133 7.6 3.92 12.48 3.92 c2.96 0 5.7468 -0.53332 8.36 -1.6 s4.7332 -2.5467 6.36 -4.44 l0 0 c0.48 -0.58668 0.45332 -1.1067 -0.08 -1.56 c-0.21332 -0.18668 -0.46664 -0.28 -0.75996 -0.28 c-0.32 0 -0.58668 0.12 -0.8 0.36 l0 0 c-1.4667 1.6533 -3.3534 2.9533 -5.66 3.9 s-4.78 1.42 -7.42 1.42 c-4.2932 0 -7.96 -1.1333 -11 -3.4 s-4.56 -4.9868 -4.56 -8.16 s1.52 -5.8932 4.56 -8.16 s6.7068 -3.4 11 -3.4 c2.64 0 5.1132 0.47332 7.42 1.42 s4.1932 2.2467 5.66 3.9 l0 0 c0.21332 0.24 0.48 0.36 0.8 0.36 c0.29332 0 0.54664 -0.09332 0.75996 -0.28 c0.53332 -0.45332 0.56 -0.97332 0.08 -1.56 z M38.00000000000001 12.239999999999998 l0 24 c0 0.72 0.36 1.08 1.08 1.08 c0.74668 0 1.12 -0.36 1.12 -1.08 l0 0 l0 -24 c0 -0.74668 -0.37332 -1.12 -1.12 -1.12 c-0.72 0 -1.08 0.37332 -1.08 1.12 z M76.48 11.120000000000001 c-0.74668 0 -1.12 0.37332 -1.12 1.12 l0 21.76 l-32 -24 l0 26.24 c0 0.72 0.37332 1.08 1.12 1.08 s1.12 -0.36 1.12 -1.08 l0 -21.8 l32 24 l0 -26.2 c0 -0.74668 -0.37332 -1.12 -1.12 -1.12 z M113.56 25.119999999999997 c0.74668 0 1.12 -0.37332 1.12 -1.12 s-0.37332 -1.12 -1.12 -1.12 l-30.88 0 l0 -9.76 l30.88 0 c0.74668 0 1.12 -0.37332 1.12 -1.12 s-0.37332 -1.12 -1.12 -1.12 l-33.12 0 l0 26.24 l33.12 0 c0.74668 0 1.12 -0.37332 1.12 -1.12 s-0.37332 -1.12 -1.12 -1.12 l-30.88 0 l0 -9.76 l30.88 0 z M134.4 34.2 l-17.12 -25.64 l0 27.68 c0 0.72 0.37332 1.08 1.12 1.08 c0.72 0 1.08 -0.36 1.08 -1.08 l0 -20.36 l14.92 22.36 l14.88 -22.36 l0 20.36 c0 0.72 0.37332 1.08 1.12 1.08 c0.72 0 1.08 -0.36 1.08 -1.08 l0 -27.68 z M154.44 12.239999999999998 l0 24 c0 0.72 0.36 1.08 1.08 1.08 c0.74668 0 1.12 -0.36 1.12 -1.08 l0 0 l0 -24 c0 -0.74668 -0.37332 -1.12 -1.12 -1.12 c-0.72 0 -1.08 0.37332 -1.08 1.12 z M193.32 35.32 l-14.84 -11.08 l14.84 -11.12 c0.29332 -0.21332 0.44 -0.50664 0.44 -0.87996 c0 -0.74668 -0.38668 -1.12 -1.16 -1.12 c-0.24 0 -0.45332 0.06668 -0.64 0.2 l-15.32 11.52 l-15.32 -11.52 c-0.18668 -0.13332 -0.4 -0.2 -0.64 -0.2 c-0.4 0 -0.70668 0.14668 -0.92 0.44 c-0.45332 0.61332 -0.38664 1.1333 0.20004 1.56 l14.84 11.12 l-14.84 11.08 c-0.29332 0.21332 -0.44 0.50664 -0.44 0.87996 c0 0.74668 0.38668 1.12 1.16 1.12 c0.24 0 0.45332 -0.06668 0.64 -0.2 l15.32 -11.52 l15.32 11.52 c0.18668 0.13332 0.4 0.2 0.64 0.2 c0.77332 0 1.16 -0.37332 1.16 -1.12 c0 -0.37332 -0.14668 -0.66664 -0.44 -0.87996 z"></path></g>
			</g>
		</svg>
	